<svg viewBox="0 0 600 400" xmlns="http://www.w3.org/2000/svg">
<g transform="translate(72, 364)">
<g>
<rect fill="" height="340" stroke="black" width="7.999999999999999" x="0" y="-340"/>
<rect fill="" height="95.61151079136691" stroke="black" width="7.999999999999999" x="7.999999999999999" y="-95.61151079136691"/>
<rect fill="" height="59.92805755395683" stroke="black" width="8.000000000000005" x="15.999999999999998" y="-59.92805755395683"/>
<rect fill="" height="42.73381294964029" stroke="black" width="7.999999999999993" x="24.000000000000004" y="-42.73381294964029"/>
<rect fill="" height="27.62589928057554" stroke="black" width="8.000000000000004" x="31.999999999999996" y="-27.62589928057554"/>
<rect fill="" height="25.53956834532374" stroke="black" width="8.000000000000007" x="40" y="-25.53956834532374"/>
<rect fill="" height="18.27338129496403" stroke="black" width="8" x="48.00000000000001" y="-18.27338129496403"/>
<rect fill="" height="15.683453237410072" stroke="black" width="7.999999999999986" x="56.00000000000001" y="-15.683453237410072"/>
<rect fill="" height="11.29496402877698" stroke="black" width="7.999999999999993" x="63.99999999999999" y="-11.29496402877698"/>
<rect fill="" height="8.776978417266188" stroke="black" width="8.000000000000014" x="71.99999999999999" y="-8.776978417266188"/>
<rect fill="" height="11.079136690647482" stroke="black" width="8" x="80" y="-11.079136690647482"/>
<rect fill="" height="6.690647482014389" stroke="black" width="8.000000000000014" x="88" y="-6.690647482014389"/>
<rect fill="" height="6.402877697841727" stroke="black" width="7.999999999999986" x="96.00000000000001" y="-6.402877697841727"/>
<rect fill="" height="6.330935251798561" stroke="black" width="8.000000000000014" x="104" y="-6.330935251798561"/>
<rect fill="" height="4.748201438848921" stroke="black" width="7.999999999999986" x="112.00000000000001" y="-4.748201438848921"/>
<rect fill="" height="4.60431654676259" stroke="black" width="7.999999999999986" x="120" y="-4.60431654676259"/>
<rect fill="" height="3.1654676258992804" stroke="black" width="8.000000000000014" x="127.99999999999999" y="-3.1654676258992804"/>
<rect fill="" height="3.381294964028777" stroke="black" width="7.999999999999972" x="136" y="-3.381294964028777"/>
<rect fill="" height="2.8776978417266186" stroke="black" width="8.000000000000028" x="143.99999999999997" y="-2.8776978417266186"/>
<rect fill="" height="2.3741007194244603" stroke="black" width="8" x="152" y="-2.3741007194244603"/>
<rect fill="" height="2.2302158273381294" stroke="black" width="8" x="160" y="-2.2302158273381294"/>
<rect fill="" height="2.302158273381295" stroke="black" width="8" x="168" y="-2.302158273381295"/>
<rect fill="" height="2.158273381294964" stroke="black" width="8.000000000000028" x="176" y="-2.158273381294964"/>
<rect fill="" height="1.870503597122302" stroke="black" width="8" x="184.00000000000003" y="-1.870503597122302"/>
<rect fill="" height="1.7266187050359711" stroke="black" width="7.999999999999972" x="192.00000000000003" y="-1.7266187050359711"/>
<rect fill="" height="0.7194244604316546" stroke="black" width="8" x="200" y="-0.7194244604316546"/>
<rect fill="" height="0.8633093525179856" stroke="black" width="8" x="208" y="-0.8633093525179856"/>
<rect fill="" height="1.2949640287769784" stroke="black" width="8.000000000000028" x="216" y="-1.2949640287769784"/>
<rect fill="" height="0.7194244604316546" stroke="black" width="7.999999999999972" x="224.00000000000003" y="-0.7194244604316546"/>
<rect fill="" height="1.1510791366906474" stroke="black" width="8" x="232" y="-1.1510791366906474"/>
<rect fill="" height="0.935251798561151" stroke="black" width="8" x="240" y="-0.935251798561151"/>
<rect fill="" height="0.935251798561151" stroke="black" width="7.999999999999972" x="248" y="-0.935251798561151"/>
<rect fill="" height="0.935251798561151" stroke="black" width="8.000000000000085" x="255.99999999999997" y="-0.935251798561151"/>
<rect fill="" height="0.5755395683453237" stroke="black" width="7.999999999999943" x="264.00000000000006" y="-0.5755395683453237"/>
<rect fill="" height="0.5755395683453237" stroke="black" width="8" x="272" y="-0.5755395683453237"/>
<rect fill="" height="0.3597122302158273" stroke="black" width="7.999999999999943" x="280" y="-0.3597122302158273"/>
<rect fill="" height="0.3597122302158273" stroke="black" width="8.000000000000057" x="287.99999999999994" y="-0.3597122302158273"/>
<rect fill="" height="0.14388489208633093" stroke="black" width="8" x="296" y="-0.14388489208633093"/>
<rect fill="" height="0.2158273381294964" stroke="black" width="8" x="304" y="-0.2158273381294964"/>
<rect fill="" height="0.3597122302158273" stroke="black" width="8" x="312" y="-0.3597122302158273"/>
<rect fill="" height="0.28776978417266186" stroke="black" width="8" x="320" y="-0.28776978417266186"/>
<rect fill="" height="0.14388489208633093" stroke="black" width="8" x="328" y="-0.14388489208633093"/>
<rect fill="" height="0.14388489208633093" stroke="black" width="8.000000000000057" x="336" y="-0.14388489208633093"/>
<rect fill="" height="0.3597122302158273" stroke="black" width="7.999999999999943" x="344.00000000000006" y="-0.3597122302158273"/>
<rect fill="" height="0.14388489208633093" stroke="black" width="8" x="352" y="-0.14388489208633093"/>
<rect fill="" height="0.07194244604316546" stroke="black" width="8.000000000000057" x="360" y="-0.07194244604316546"/>
<rect fill="" height="0.3597122302158273" stroke="black" width="7.999999999999943" x="368.00000000000006" y="-0.3597122302158273"/>
<rect fill="" height="0.07194244604316546" stroke="black" width="8.000000000000057" x="376" y="-0.07194244604316546"/>
<rect fill="" height="0.14388489208633093" stroke="black" width="7.999999999999943" x="384.00000000000006" y="-0.14388489208633093"/>
<rect fill="" height="0" stroke="black" width="8" x="392" y="0"/>
<rect fill="" height="0" stroke="black" width="8" x="400" y="0"/>
<rect fill="" height="0" stroke="black" width="8" x="408" y="0"/>
<rect fill="" height="0.07194244604316546" stroke="black" width="8" x="416" y="-0.07194244604316546"/>
<rect fill="" height="0" stroke="black" width="8" x="424" y="0"/>
<rect fill="" height="0" stroke="black" width="8" x="432" y="0"/>
<rect fill="" height="0" stroke="black" width="8.000000000000057" x="440" y="0"/>
<rect fill="" height="0" stroke="black" width="7.999999999999943" x="448.00000000000006" y="0"/>
<rect fill="" height="0" stroke="black" width="8" x="456" y="0"/>
<rect fill="" height="0" stroke="black" width="7.999999999999943" x="464" y="0"/>
<rect fill="" height="0.07194244604316546" stroke="black" width="8.000000000000057" x="471.99999999999994" y="-0.07194244604316546"/>
</g>
<g>
<g>
<line stroke="black" stroke-width="1" x1="-0.00000001737859346662563" x2="-0.00000001737859346662563" y1="0" y2="10"/>
<line stroke="black" stroke-width="1" x1="125.95199036068286" x2="125.95199036068286" y1="0" y2="10"/>
<line stroke="black" stroke-width="1" x1="251.90398073874428" x2="251.90398073874428" y1="0" y2="10"/>
<line stroke="black" stroke-width="1" x1="377.85597111680573" x2="377.85597111680573" y1="0" y2="10"/>
</g>
<line stroke="black" stroke-width="1" x1="0" x2="480" y1="0" y2="0"/>
<g>
<text font-size="12" text-anchor="middle" x="-0.00000001737859346662563" y="20">
0
</text>
<text font-size="12" text-anchor="middle" x="125.95199036068286" y="20">
0.2
</text>
<text font-size="12" text-anchor="middle" x="251.90398073874428" y="20">
0.4
</text>
<text font-size="12" text-anchor="middle" x="377.85597111680573" y="20">
0.6
</text>
</g>
<text font-size="12" text-anchor="middle" x="240" y="30">

</text>
</g>
<g>
<g>
<line stroke="black" stroke-width="1" x1="0" x2="-10" y1="0" y2="0"/>
<line stroke="black" stroke-width="1" x1="0" x2="-10" y1="-71.94244604316546" y2="-71.94244604316546"/>
<line stroke="black" stroke-width="1" x1="0" x2="-10" y1="-143.88489208633092" y2="-143.88489208633092"/>
<line stroke="black" stroke-width="1" x1="0" x2="-10" y1="-215.8273381294964" y2="-215.8273381294964"/>
<line stroke="black" stroke-width="1" x1="0" x2="-10" y1="-287.76978417266184" y2="-287.76978417266184"/>
</g>
<line stroke="black" stroke-width="1" x1="0" x2="0" y1="0" y2="-340"/>
<g>
<text dominant-baseline="middle" font-size="12" text-anchor="end" x="-15" y="0">
0
</text>
<text dominant-baseline="middle" font-size="12" text-anchor="end" x="-15" y="-71.94244604316546">
1000
</text>
<text dominant-baseline="middle" font-size="12" text-anchor="end" x="-15" y="-143.88489208633092">
2000
</text>
<text dominant-baseline="middle" font-size="12" text-anchor="end" x="-15" y="-215.8273381294964">
3000
</text>
<text dominant-baseline="middle" font-size="12" text-anchor="end" x="-15" y="-287.76978417266184">
4000
</text>
</g>
<text font-size="12" text-anchor="middle" transform="rotate(-90 -48 -170)" x="-48" y="-182">

</text>
</g>
</g>
</svg>