<svg viewBox="0 0 600 400" xmlns="http://www.w3.org/2000/svg">
<g transform="translate(72, 364)">
<g>
<rect fill="" height="340" stroke="black" width="8" x="0" y="-340"/>
<rect fill="" height="177.94392523364485" stroke="black" width="8" x="8" y="-177.94392523364485"/>
<rect fill="" height="130.2803738317757" stroke="black" width="8.000000000000004" x="16" y="-130.2803738317757"/>
<rect fill="" height="120.74766355140187" stroke="black" width="7.9999999999999964" x="24.000000000000004" y="-120.74766355140187"/>
<rect fill="" height="108.03738317757009" stroke="black" width="8" x="32" y="-108.03738317757009"/>
<rect fill="" height="66.72897196261682" stroke="black" width="8.000000000000007" x="40" y="-66.72897196261682"/>
<rect fill="" height="82.61682242990655" stroke="black" width="7.999999999999993" x="48.00000000000001" y="-82.61682242990655"/>
<rect fill="" height="60.373831775700936" stroke="black" width="8" x="56" y="-60.373831775700936"/>
<rect fill="" height="54.018691588785046" stroke="black" width="8" x="64" y="-54.018691588785046"/>
<rect fill="" height="34.953271028037385" stroke="black" width="8" x="72" y="-34.953271028037385"/>
<rect fill="" height="47.66355140186916" stroke="black" width="8" x="80" y="-47.66355140186916"/>
<rect fill="" height="50.8411214953271" stroke="black" width="8.000000000000014" x="88" y="-50.8411214953271"/>
<rect fill="" height="38.13084112149533" stroke="black" width="7.999999999999972" x="96.00000000000001" y="-38.13084112149533"/>
<rect fill="" height="31.77570093457944" stroke="black" width="8.000000000000014" x="103.99999999999999" y="-31.77570093457944"/>
<rect fill="" height="41.308411214953274" stroke="black" width="8" x="112" y="-41.308411214953274"/>
<rect fill="" height="38.13084112149533" stroke="black" width="8" x="120" y="-38.13084112149533"/>
<rect fill="" height="63.55140186915888" stroke="black" width="8" x="128" y="-63.55140186915888"/>
<rect fill="" height="28.598130841121495" stroke="black" width="8" x="136" y="-28.598130841121495"/>
<rect fill="" height="31.77570093457944" stroke="black" width="8" x="144" y="-31.77570093457944"/>
<rect fill="" height="31.77570093457944" stroke="black" width="8" x="152" y="-31.77570093457944"/>
<rect fill="" height="25.42056074766355" stroke="black" width="8" x="160" y="-25.42056074766355"/>
<rect fill="" height="25.42056074766355" stroke="black" width="8" x="168" y="-25.42056074766355"/>
<rect fill="" height="19.065420560747665" stroke="black" width="8.000000000000028" x="176" y="-19.065420560747665"/>
<rect fill="" height="22.242990654205606" stroke="black" width="8" x="184.00000000000003" y="-22.242990654205606"/>
<rect fill="" height="19.065420560747665" stroke="black" width="8" x="192.00000000000003" y="-19.065420560747665"/>
<rect fill="" height="9.532710280373832" stroke="black" width="7.999999999999943" x="200.00000000000003" y="-9.532710280373832"/>
<rect fill="" height="12.710280373831775" stroke="black" width="8.000000000000028" x="207.99999999999997" y="-12.710280373831775"/>
<rect fill="" height="34.953271028037385" stroke="black" width="8" x="216" y="-34.953271028037385"/>
<rect fill="" height="34.953271028037385" stroke="black" width="8" x="224" y="-34.953271028037385"/>
<rect fill="" height="15.88785046728972" stroke="black" width="8" x="232" y="-15.88785046728972"/>
<rect fill="" height="34.953271028037385" stroke="black" width="8.000000000000028" x="240" y="-34.953271028037385"/>
<rect fill="" height="3.177570093457944" stroke="black" width="7.999999999999972" x="248.00000000000003" y="-3.177570093457944"/>
<rect fill="" height="28.598130841121495" stroke="black" width="8" x="256" y="-28.598130841121495"/>
<rect fill="" height="15.88785046728972" stroke="black" width="8" x="264" y="-15.88785046728972"/>
<rect fill="" height="22.242990654205606" stroke="black" width="8.000000000000057" x="272" y="-22.242990654205606"/>
<rect fill="" height="15.88785046728972" stroke="black" width="7.999999999999943" x="280.00000000000006" y="-15.88785046728972"/>
<rect fill="" height="15.88785046728972" stroke="black" width="8" x="288" y="-15.88785046728972"/>
<rect fill="" height="28.598130841121495" stroke="black" width="8" x="296" y="-28.598130841121495"/>
<rect fill="" height="19.065420560747665" stroke="black" width="8" x="304" y="-19.065420560747665"/>
<rect fill="" height="9.532710280373832" stroke="black" width="8" x="312" y="-9.532710280373832"/>
<rect fill="" height="3.177570093457944" stroke="black" width="8" x="320" y="-3.177570093457944"/>
<rect fill="" height="22.242990654205606" stroke="black" width="8" x="328" y="-22.242990654205606"/>
<rect fill="" height="19.065420560747665" stroke="black" width="8" x="336" y="-19.065420560747665"/>
<rect fill="" height="9.532710280373832" stroke="black" width="8" x="344" y="-9.532710280373832"/>
<rect fill="" height="19.065420560747665" stroke="black" width="8.000000000000057" x="352" y="-19.065420560747665"/>
<rect fill="" height="22.242990654205606" stroke="black" width="8" x="360.00000000000006" y="-22.242990654205606"/>
<rect fill="" height="25.42056074766355" stroke="black" width="8" x="368.00000000000006" y="-25.42056074766355"/>
<rect fill="" height="9.532710280373832" stroke="black" width="8" x="376.00000000000006" y="-9.532710280373832"/>
<rect fill="" height="9.532710280373832" stroke="black" width="8" x="384.00000000000006" y="-9.532710280373832"/>
<rect fill="" height="3.177570093457944" stroke="black" width="8" x="392.00000000000006" y="-3.177570093457944"/>
<rect fill="" height="22.242990654205606" stroke="black" width="7.999999999999886" x="400.00000000000006" y="-22.242990654205606"/>
<rect fill="" height="19.065420560747665" stroke="black" width="8" x="407.99999999999994" y="-19.065420560747665"/>
<rect fill="" height="9.532710280373832" stroke="black" width="8" x="415.99999999999994" y="-9.532710280373832"/>
<rect fill="" height="22.242990654205606" stroke="black" width="8.000000000000057" x="423.99999999999994" y="-22.242990654205606"/>
<rect fill="" height="15.88785046728972" stroke="black" width="7.999999999999943" x="432" y="-15.88785046728972"/>
<rect fill="" height="15.88785046728972" stroke="black" width="8.000000000000057" x="439.99999999999994" y="-15.88785046728972"/>
<rect fill="" height="15.88785046728972" stroke="black" width="7.999999999999943" x="448" y="-15.88785046728972"/>
<rect fill="" height="9.532710280373832" stroke="black" width="8.000000000000057" x="455.99999999999994" y="-9.532710280373832"/>
<rect fill="" height="6.355140186915888" stroke="black" width="8" x="464" y="-6.355140186915888"/>
<rect fill="" height="19.065420560747665" stroke="black" width="8" x="472" y="-19.065420560747665"/>
</g>
<g>
<g>
<line stroke="black" stroke-width="1" x1="-0.00320054950055016" x2="-0.00320054950055016" y1="0" y2="10"/>
<line stroke="black" stroke-width="1" x1="96.5786492992738" x2="96.5786492992738" y1="0" y2="10"/>
<line stroke="black" stroke-width="1" x1="193.16049914804816" x2="193.16049914804816" y1="0" y2="10"/>
<line stroke="black" stroke-width="1" x1="289.7423489968225" x2="289.7423489968225" y1="0" y2="10"/>
<line stroke="black" stroke-width="1" x1="386.3241988455969" x2="386.3241988455969" y1="0" y2="10"/>
</g>
<line stroke="black" stroke-width="1" x1="0" x2="480" y1="0" y2="0"/>
<g>
<text font-size="12" text-anchor="middle" x="-0.00320054950055016" y="20">
0
</text>
<text font-size="12" text-anchor="middle" x="96.5786492992738" y="20">
0.01
</text>
<text font-size="12" text-anchor="middle" x="193.16049914804816" y="20">
0.02
</text>
<text font-size="12" text-anchor="middle" x="289.7423489968225" y="20">
0.03
</text>
<text font-size="12" text-anchor="middle" x="386.3241988455969" y="20">
0.04
</text>
</g>
<text font-size="12" text-anchor="middle" x="240" y="30">

</text>
</g>
<g>
<g>
<line stroke="black" stroke-width="1" x1="0" x2="-10" y1="0" y2="0"/>
<line stroke="black" stroke-width="1" x1="0" x2="-10" y1="-63.55140186915888" y2="-63.55140186915888"/>
<line stroke="black" stroke-width="1" x1="0" x2="-10" y1="-127.10280373831776" y2="-127.10280373831776"/>
<line stroke="black" stroke-width="1" x1="0" x2="-10" y1="-190.65420560747663" y2="-190.65420560747663"/>
<line stroke="black" stroke-width="1" x1="0" x2="-10" y1="-254.20560747663552" y2="-254.20560747663552"/>
<line stroke="black" stroke-width="1" x1="0" x2="-10" y1="-317.7570093457944" y2="-317.7570093457944"/>
</g>
<line stroke="black" stroke-width="1" x1="0" x2="0" y1="0" y2="-340"/>
<g>
<text dominant-baseline="middle" font-size="12" text-anchor="end" x="-15" y="0">
0
</text>
<text dominant-baseline="middle" font-size="12" text-anchor="end" x="-15" y="-63.55140186915888">
20
</text>
<text dominant-baseline="middle" font-size="12" text-anchor="end" x="-15" y="-127.10280373831776">
40
</text>
<text dominant-baseline="middle" font-size="12" text-anchor="end" x="-15" y="-190.65420560747663">
60
</text>
<text dominant-baseline="middle" font-size="12" text-anchor="end" x="-15" y="-254.20560747663552">
80
</text>
<text dominant-baseline="middle" font-size="12" text-anchor="end" x="-15" y="-317.7570093457944">
100
</text>
</g>
<text font-size="12" text-anchor="middle" transform="rotate(-90 -36 -170)" x="-36" y="-182">

</text>
</g>
</g>
</svg>