<svg viewBox="0 0 600 400" xmlns="http://www.w3.org/2000/svg">
<g transform="translate(72, 364)">
<g>
<rect fill="" height="340" stroke="black" width="7.999999999999999" x="0" y="-340"/>
<rect fill="" height="101.45785876993166" stroke="black" width="7.999999999999999" x="7.999999999999999" y="-101.45785876993166"/>
<rect fill="" height="56.11513770967074" stroke="black" width="8.000000000000005" x="15.999999999999998" y="-56.11513770967074"/>
<rect fill="" height="37.24580658521433" stroke="black" width="7.999999999999993" x="24.000000000000004" y="-37.24580658521433"/>
<rect fill="" height="29.430523917995444" stroke="black" width="8.000000000000004" x="31.999999999999996" y="-29.430523917995444"/>
<rect fill="" height="24.079519569269" stroke="black" width="8.000000000000007" x="40" y="-24.079519569269"/>
<rect fill="" height="17.95402774901636" stroke="black" width="8" x="48.00000000000001" y="-17.95402774901636"/>
<rect fill="" height="14.785669910954649" stroke="black" width="7.999999999999986" x="56.00000000000001" y="-14.785669910954649"/>
<rect fill="" height="9.716297370055912" stroke="black" width="7.999999999999993" x="63.99999999999999" y="-9.716297370055912"/>
<rect fill="" height="9.857113273969766" stroke="black" width="8.000000000000014" x="71.99999999999999" y="-9.857113273969766"/>
<rect fill="" height="8.237730378960448" stroke="black" width="7.999999999999986" x="80" y="-8.237730378960448"/>
<rect fill="" height="5.703044108511079" stroke="black" width="8.000000000000028" x="87.99999999999999" y="-5.703044108511079"/>
<rect fill="" height="6.899979291778836" stroke="black" width="8" x="96.00000000000001" y="-6.899979291778836"/>
<rect fill="" height="6.12549182025264" stroke="black" width="8" x="104.00000000000001" y="-6.12549182025264"/>
<rect fill="" height="3.8724373576309796" stroke="black" width="8" x="112.00000000000001" y="-3.8724373576309796"/>
<rect fill="" height="4.294885069372541" stroke="black" width="7.999999999999972" x="120.00000000000001" y="-4.294885069372541"/>
<rect fill="" height="2.6755021743632224" stroke="black" width="8.000000000000014" x="127.99999999999999" y="-2.6755021743632224"/>
<rect fill="" height="2.816318078277076" stroke="black" width="7.999999999999972" x="136" y="-2.816318078277076"/>
<rect fill="" height="1.9010147028370263" stroke="black" width="8.000000000000028" x="143.99999999999997" y="-1.9010147028370263"/>
<rect fill="" height="2.7459101263201493" stroke="black" width="8" x="152" y="-2.7459101263201493"/>
<rect fill="" height="2.112238558707807" stroke="black" width="7.999999999999943" x="160" y="-2.112238558707807"/>
<rect fill="" height="2.0418306067508802" stroke="black" width="8.000000000000028" x="167.99999999999994" y="-2.0418306067508802"/>
<rect fill="" height="1.7601987989231724" stroke="black" width="8.000000000000028" x="175.99999999999997" y="-1.7601987989231724"/>
<rect fill="" height="1.6193828950093188" stroke="black" width="8.000000000000028" x="184" y="-1.6193828950093188"/>
<rect fill="" height="1.1265272313108303" stroke="black" width="7.999999999999972" x="192.00000000000003" y="-1.1265272313108303"/>
<rect fill="" height="1.5489749430523918" stroke="black" width="8.000000000000028" x="200" y="-1.5489749430523918"/>
<rect fill="" height="0.6336715676123421" stroke="black" width="7.999999999999972" x="208.00000000000003" y="-0.6336715676123421"/>
<rect fill="" height="1.1969351832677573" stroke="black" width="8.000000000000028" x="216" y="-1.1969351832677573"/>
<rect fill="" height="0.5632636156554152" stroke="black" width="7.999999999999972" x="224.00000000000003" y="-0.5632636156554152"/>
<rect fill="" height="0.6336715676123421" stroke="black" width="8.000000000000028" x="232" y="-0.6336715676123421"/>
<rect fill="" height="0.6336715676123421" stroke="black" width="8.000000000000028" x="240.00000000000003" y="-0.6336715676123421"/>
<rect fill="" height="0.3520397597846345" stroke="black" width="7.999999999999915" x="248.00000000000006" y="-0.3520397597846345"/>
<rect fill="" height="0.6336715676123421" stroke="black" width="8.000000000000028" x="255.99999999999997" y="-0.6336715676123421"/>
<rect fill="" height="0.704079519569269" stroke="black" width="8" x="264" y="-0.704079519569269"/>
<rect fill="" height="0.1408159039138538" stroke="black" width="8.000000000000057" x="272" y="-0.1408159039138538"/>
<rect fill="" height="0.2112238558707807" stroke="black" width="7.999999999999886" x="280.00000000000006" y="-0.2112238558707807"/>
<rect fill="" height="0.2112238558707807" stroke="black" width="8.000000000000057" x="287.99999999999994" y="-0.2112238558707807"/>
<rect fill="" height="0.0704079519569269" stroke="black" width="8" x="296" y="-0.0704079519569269"/>
<rect fill="" height="0.4224477117415614" stroke="black" width="8" x="304" y="-0.4224477117415614"/>
<rect fill="" height="0.2816318078277076" stroke="black" width="8" x="312" y="-0.2816318078277076"/>
<rect fill="" height="0.0704079519569269" stroke="black" width="8.000000000000057" x="320" y="-0.0704079519569269"/>
<rect fill="" height="0.0704079519569269" stroke="black" width="7.9999999999998295" x="328.00000000000006" y="-0.0704079519569269"/>
<rect fill="" height="0.1408159039138538" stroke="black" width="8.000000000000114" x="335.9999999999999" y="-0.1408159039138538"/>
<rect fill="" height="0.2816318078277076" stroke="black" width="7.999999999999943" x="344" y="-0.2816318078277076"/>
<rect fill="" height="0.1408159039138538" stroke="black" width="8.000000000000057" x="351.99999999999994" y="-0.1408159039138538"/>
<rect fill="" height="0.0704079519569269" stroke="black" width="8" x="360" y="-0.0704079519569269"/>
<rect fill="" height="0" stroke="black" width="8" x="368" y="0"/>
<rect fill="" height="0.0704079519569269" stroke="black" width="8.000000000000057" x="376" y="-0.0704079519569269"/>
<rect fill="" height="0.0704079519569269" stroke="black" width="7.999999999999943" x="384.00000000000006" y="-0.0704079519569269"/>
<rect fill="" height="0.0704079519569269" stroke="black" width="8" x="392" y="-0.0704079519569269"/>
<rect fill="" height="0" stroke="black" width="8" x="400" y="0"/>
<rect fill="" height="0" stroke="black" width="8.000000000000057" x="408" y="0"/>
<rect fill="" height="0.0704079519569269" stroke="black" width="7.999999999999886" x="416.00000000000006" y="-0.0704079519569269"/>
<rect fill="" height="0" stroke="black" width="8.000000000000057" x="423.99999999999994" y="0"/>
<rect fill="" height="0" stroke="black" width="8" x="432" y="0"/>
<rect fill="" height="0.0704079519569269" stroke="black" width="8.000000000000057" x="440" y="-0.0704079519569269"/>
<rect fill="" height="0" stroke="black" width="7.999999999999886" x="448.00000000000006" y="0"/>
<rect fill="" height="0.0704079519569269" stroke="black" width="8.000000000000057" x="455.99999999999994" y="-0.0704079519569269"/>
<rect fill="" height="0" stroke="black" width="8" x="464" y="0"/>
<rect fill="" height="0.0704079519569269" stroke="black" width="8.000000000000057" x="472" y="-0.0704079519569269"/>
</g>
<g>
<g>
<line stroke="black" stroke-width="1" x1="-0.0000086590969977915" x2="-0.0000086590969977915" y1="0" y2="10"/>
<line stroke="black" stroke-width="1" x1="119.7757274082148" x2="119.7757274082148" y1="0" y2="10"/>
<line stroke="black" stroke-width="1" x1="239.5514634755266" x2="239.5514634755266" y1="0" y2="10"/>
<line stroke="black" stroke-width="1" x1="359.3271995428384" x2="359.3271995428384" y1="0" y2="10"/>
<line stroke="black" stroke-width="1" x1="479.10293561015015" x2="479.10293561015015" y1="0" y2="10"/>
</g>
<line stroke="black" stroke-width="1" x1="0" x2="480" y1="0" y2="0"/>
<g>
<text font-size="12" text-anchor="middle" x="-0.0000086590969977915" y="20">
0
</text>
<text font-size="12" text-anchor="middle" x="119.7757274082148" y="20">
0.2
</text>
<text font-size="12" text-anchor="middle" x="239.5514634755266" y="20">
0.4
</text>
<text font-size="12" text-anchor="middle" x="359.3271995428384" y="20">
0.6
</text>
<text font-size="12" text-anchor="middle" x="479.10293561015015" y="20">
0.8
</text>
</g>
<text font-size="12" text-anchor="middle" x="240" y="30">

</text>
</g>
<g>
<g>
<line stroke="black" stroke-width="1" x1="0" x2="-10" y1="0" y2="0"/>
<line stroke="black" stroke-width="1" x1="0" x2="-10" y1="-70.4079519569269" y2="-70.4079519569269"/>
<line stroke="black" stroke-width="1" x1="0" x2="-10" y1="-140.8159039138538" y2="-140.8159039138538"/>
<line stroke="black" stroke-width="1" x1="0" x2="-10" y1="-211.2238558707807" y2="-211.2238558707807"/>
<line stroke="black" stroke-width="1" x1="0" x2="-10" y1="-281.6318078277076" y2="-281.6318078277076"/>
</g>
<line stroke="black" stroke-width="1" x1="0" x2="0" y1="0" y2="-340"/>
<g>
<text dominant-baseline="middle" font-size="12" text-anchor="end" x="-15" y="0">
0
</text>
<text dominant-baseline="middle" font-size="12" text-anchor="end" x="-15" y="-70.4079519569269">
1000
</text>
<text dominant-baseline="middle" font-size="12" text-anchor="end" x="-15" y="-140.8159039138538">
2000
</text>
<text dominant-baseline="middle" font-size="12" text-anchor="end" x="-15" y="-211.2238558707807">
3000
</text>
<text dominant-baseline="middle" font-size="12" text-anchor="end" x="-15" y="-281.6318078277076">
4000
</text>
</g>
<text font-size="12" text-anchor="middle" transform="rotate(-90 -48 -170)" x="-48" y="-182">

</text>
</g>
</g>
</svg>