<svg viewBox="0 0 600 400" xmlns="http://www.w3.org/2000/svg">
<g transform="translate(72, 364)">
<g>
<rect fill="" height="340" stroke="black" width="8" x="0" y="-340"/>
<rect fill="" height="181.9108280254777" stroke="black" width="8" x="8" y="-181.9108280254777"/>
<rect fill="" height="163.5031847133758" stroke="black" width="8" x="16" y="-163.5031847133758"/>
<rect fill="" height="125.60509554140127" stroke="black" width="8" x="24" y="-125.60509554140127"/>
<rect fill="" height="105.03184713375796" stroke="black" width="8" x="32" y="-105.03184713375796"/>
<rect fill="" height="111.52866242038216" stroke="black" width="8" x="40" y="-111.52866242038216"/>
<rect fill="" height="107.19745222929936" stroke="black" width="8.000000000000007" x="48" y="-107.19745222929936"/>
<rect fill="" height="103.94904458598727" stroke="black" width="7.999999999999993" x="56.00000000000001" y="-103.94904458598727"/>
<rect fill="" height="90.95541401273886" stroke="black" width="8" x="64" y="-90.95541401273886"/>
<rect fill="" height="70.38216560509554" stroke="black" width="8" x="72" y="-70.38216560509554"/>
<rect fill="" height="58.47133757961783" stroke="black" width="8" x="80" y="-58.47133757961783"/>
<rect fill="" height="72.54777070063695" stroke="black" width="8" x="88" y="-72.54777070063695"/>
<rect fill="" height="63.88535031847134" stroke="black" width="8.000000000000014" x="96" y="-63.88535031847134"/>
<rect fill="" height="62.802547770700635" stroke="black" width="8" x="104.00000000000001" y="-62.802547770700635"/>
<rect fill="" height="59.554140127388536" stroke="black" width="7.999999999999986" x="112.00000000000001" y="-59.554140127388536"/>
<rect fill="" height="59.554140127388536" stroke="black" width="8" x="120" y="-59.554140127388536"/>
<rect fill="" height="54.140127388535035" stroke="black" width="8" x="128" y="-54.140127388535035"/>
<rect fill="" height="60.63694267515923" stroke="black" width="8" x="136" y="-60.63694267515923"/>
<rect fill="" height="64.96815286624204" stroke="black" width="8" x="144" y="-64.96815286624204"/>
<rect fill="" height="49.80891719745223" stroke="black" width="8" x="152" y="-49.80891719745223"/>
<rect fill="" height="49.80891719745223" stroke="black" width="8" x="160" y="-49.80891719745223"/>
<rect fill="" height="58.47133757961783" stroke="black" width="8" x="168" y="-58.47133757961783"/>
<rect fill="" height="49.80891719745223" stroke="black" width="8.000000000000028" x="176" y="-49.80891719745223"/>
<rect fill="" height="35.732484076433124" stroke="black" width="7.999999999999972" x="184.00000000000003" y="-35.732484076433124"/>
<rect fill="" height="31.401273885350317" stroke="black" width="8.000000000000028" x="192" y="-31.401273885350317"/>
<rect fill="" height="42.22929936305732" stroke="black" width="8" x="200.00000000000003" y="-42.22929936305732"/>
<rect fill="" height="47.64331210191083" stroke="black" width="8" x="208.00000000000003" y="-47.64331210191083"/>
<rect fill="" height="46.560509554140125" stroke="black" width="8" x="216.00000000000003" y="-46.560509554140125"/>
<rect fill="" height="35.732484076433124" stroke="black" width="8" x="224.00000000000003" y="-35.732484076433124"/>
<rect fill="" height="43.31210191082803" stroke="black" width="7.999999999999972" x="232.00000000000003" y="-43.31210191082803"/>
<rect fill="" height="43.31210191082803" stroke="black" width="8.000000000000057" x="240" y="-43.31210191082803"/>
<rect fill="" height="33.56687898089172" stroke="black" width="7.999999999999943" x="248.00000000000006" y="-33.56687898089172"/>
<rect fill="" height="45.47770700636943" stroke="black" width="8.000000000000057" x="256" y="-45.47770700636943"/>
<rect fill="" height="49.80891719745223" stroke="black" width="7.999999999999943" x="264.00000000000006" y="-49.80891719745223"/>
<rect fill="" height="35.732484076433124" stroke="black" width="8" x="272" y="-35.732484076433124"/>
<rect fill="" height="40.06369426751592" stroke="black" width="8" x="280" y="-40.06369426751592"/>
<rect fill="" height="32.48407643312102" stroke="black" width="8" x="288" y="-32.48407643312102"/>
<rect fill="" height="34.64968152866242" stroke="black" width="8" x="296" y="-34.64968152866242"/>
<rect fill="" height="43.31210191082803" stroke="black" width="8" x="304" y="-43.31210191082803"/>
<rect fill="" height="38.98089171974522" stroke="black" width="8" x="312" y="-38.98089171974522"/>
<rect fill="" height="31.401273885350317" stroke="black" width="8.000000000000057" x="320" y="-31.401273885350317"/>
<rect fill="" height="41.146496815286625" stroke="black" width="7.999999999999943" x="328.00000000000006" y="-41.146496815286625"/>
<rect fill="" height="30.318471337579616" stroke="black" width="8" x="336" y="-30.318471337579616"/>
<rect fill="" height="23.821656050955415" stroke="black" width="8" x="344" y="-23.821656050955415"/>
<rect fill="" height="37.89808917197452" stroke="black" width="8" x="352" y="-37.89808917197452"/>
<rect fill="" height="29.235668789808916" stroke="black" width="8.000000000000057" x="360" y="-29.235668789808916"/>
<rect fill="" height="28.15286624203822" stroke="black" width="7.999999999999943" x="368.00000000000006" y="-28.15286624203822"/>
<rect fill="" height="31.401273885350317" stroke="black" width="8" x="376" y="-31.401273885350317"/>
<rect fill="" height="27.070063694267517" stroke="black" width="8" x="384" y="-27.070063694267517"/>
<rect fill="" height="30.318471337579616" stroke="black" width="8.000000000000057" x="392" y="-30.318471337579616"/>
<rect fill="" height="24.904458598726116" stroke="black" width="7.999999999999886" x="400.00000000000006" y="-24.904458598726116"/>
<rect fill="" height="12.993630573248408" stroke="black" width="8.000000000000114" x="407.99999999999994" y="-12.993630573248408"/>
<rect fill="" height="29.235668789808916" stroke="black" width="7.999999999999886" x="416.00000000000006" y="-29.235668789808916"/>
<rect fill="" height="24.904458598726116" stroke="black" width="8.000000000000114" x="423.99999999999994" y="-24.904458598726116"/>
<rect fill="" height="36.81528662420382" stroke="black" width="7.999999999999886" x="432.00000000000006" y="-36.81528662420382"/>
<rect fill="" height="29.235668789808916" stroke="black" width="8.000000000000114" x="439.99999999999994" y="-29.235668789808916"/>
<rect fill="" height="22.738853503184714" stroke="black" width="7.999999999999943" x="448.00000000000006" y="-22.738853503184714"/>
<rect fill="" height="22.738853503184714" stroke="black" width="8.000000000000057" x="456" y="-22.738853503184714"/>
<rect fill="" height="25.987261146496817" stroke="black" width="7.999999999999943" x="464.00000000000006" y="-25.987261146496817"/>
<rect fill="" height="18.40764331210191" stroke="black" width="8" x="472" y="-18.40764331210191"/>
</g>
<g>
<g>
<line stroke="black" stroke-width="1" x1="-0.002504997618907712" x2="-0.002504997618907712" y1="0" y2="10"/>
<line stroke="black" stroke-width="1" x1="96.08769766461002" x2="96.08769766461002" y1="0" y2="10"/>
<line stroke="black" stroke-width="1" x1="192.17790032683894" x2="192.17790032683894" y1="0" y2="10"/>
<line stroke="black" stroke-width="1" x1="288.2681029890678" x2="288.2681029890678" y1="0" y2="10"/>
<line stroke="black" stroke-width="1" x1="384.35830565129675" x2="384.35830565129675" y1="0" y2="10"/>
</g>
<line stroke="black" stroke-width="1" x1="0" x2="480" y1="0" y2="0"/>
<g>
<text font-size="12" text-anchor="middle" x="-0.002504997618907712" y="20">
0
</text>
<text font-size="12" text-anchor="middle" x="96.08769766461002" y="20">
0.001
</text>
<text font-size="12" text-anchor="middle" x="192.17790032683894" y="20">
0.002
</text>
<text font-size="12" text-anchor="middle" x="288.2681029890678" y="20">
0.003
</text>
<text font-size="12" text-anchor="middle" x="384.35830565129675" y="20">
0.004
</text>
</g>
<text font-size="12" text-anchor="middle" x="240" y="30">

</text>
</g>
<g>
<g>
<line stroke="black" stroke-width="1" x1="0" x2="-10" y1="0" y2="0"/>
<line stroke="black" stroke-width="1" x1="0" x2="-10" y1="-108.28025477707007" y2="-108.28025477707007"/>
<line stroke="black" stroke-width="1" x1="0" x2="-10" y1="-216.56050955414014" y2="-216.56050955414014"/>
<line stroke="black" stroke-width="1" x1="0" x2="-10" y1="-324.8407643312102" y2="-324.8407643312102"/>
</g>
<line stroke="black" stroke-width="1" x1="0" x2="0" y1="0" y2="-340"/>
<g>
<text dominant-baseline="middle" font-size="12" text-anchor="end" x="-15" y="0">
0
</text>
<text dominant-baseline="middle" font-size="12" text-anchor="end" x="-15" y="-108.28025477707007">
100
</text>
<text dominant-baseline="middle" font-size="12" text-anchor="end" x="-15" y="-216.56050955414014">
200
</text>
<text dominant-baseline="middle" font-size="12" text-anchor="end" x="-15" y="-324.8407643312102">
300
</text>
</g>
<text font-size="12" text-anchor="middle" transform="rotate(-90 -36 -170)" x="-36" y="-182">

</text>
</g>
</g>
</svg>